PathFileType	3	(X/Y/Z)	F:\ViconData\AntennenMessung\Messung1\Session1\ID14.trc
DataRate	CameraRate	NumFrames	NumMarkers	Units	OrigDataRate	OrigDataStartFrame	OrigNumFrames
120.0	120.0	6	70	mm	120.0	971	1940	
Frame#	Time	Ashort			Along			Atop			A4			Bshort			Blong			Btop			B4			Cshort			Clong			Ctop			C4			Dshort			Dlong			Dtop			D4			Eshort			Elong			Etop			E4			Fshort			Flong			Ftop			F4			Gshort			Glong			Gtop			G4			Hshort			Hlong			Htop			H4			I1			I2			I3			I4			I5			WandAshort			WandAlong			WandAtop			WandA4			WandA15			WandBshort			WandB4			WandB5			WandBtop			WandBlong			WandCshort			WandClong			WandCtop			WandC4			WandC5			Acenter			Aantenna			Bcenter			Bantenna			Ccenter			Cantenna			Dcenter			Dantenna			Ecenter			Eantenna			Fcenter			Fantenna			Gcenter			Gantenna			Hcenter			Hantenna			Icenter			Iantenna			
		X1	Y1	Z1	X2	Y2	Z2	X3	Y3	Z3	X4	Y4	Z4	X5	Y5	Z5	X6	Y6	Z6	X7	Y7	Z7	X8	Y8	Z8	X9	Y9	Z9	X10	Y10	Z10	X11	Y11	Z11	X12	Y12	Z12	X13	Y13	Z13	X14	Y14	Z14	X15	Y15	Z15	X16	Y16	Z16	X17	Y17	Z17	X18	Y18	Z18	X19	Y19	Z19	X20	Y20	Z20	X21	Y21	Z21	X22	Y22	Z22	X23	Y23	Z23	X24	Y24	Z24	X25	Y25	Z25	X26	Y26	Z26	X27	Y27	Z27	X28	Y28	Z28	X29	Y29	Z29	X30	Y30	Z30	X31	Y31	Z31	X32	Y32	Z32	X33	Y33	Z33	X34	Y34	Z34	X35	Y35	Z35	X36	Y36	Z36	X37	Y37	Z37	X38	Y38	Z38	X39	Y39	Z39	X40	Y40	Z40	X41	Y41	Z41	X42	Y42	Z42	X43	Y43	Z43	X44	Y44	Z44	X45	Y45	Z45	X46	Y46	Z46	X47	Y47	Z47	X48	Y48	Z48	X49	Y49	Z49	X50	Y50	Z50	X51	Y51	Z51	X52	Y52	Z52	X53	Y53	Z53	X54	Y54	Z54	X55	Y55	Z55	X56	Y56	Z56	X57	Y57	Z57	X58	Y58	Z58	X59	Y59	Z59	X60	Y60	Z60	X61	Y61	Z61	X62	Y62	Z62	X63	Y63	Z63	X64	Y64	Z64	X65	Y65	Z65	X66	Y66	Z66	X67	Y67	Z67	X68	Y68	Z68	X69	Y69	Z69	X70	Y70	Z70	
971	8.0833333	-1038.2148	214.56664	-1644.0916	-1109.3802	204.20647	-1599.4116	-1063.4828	172.96863	-1625.917	-1054.1339	262.29364	-1634.8973	-1352.5914	234.53102	1003.9953	-1281.3794	227.34344	1052.1841	-1322.6951	193.95602	1020.8453	-1284.5316	287.85614	1052.7542	813.84119	187.79471	1209.4446	892.78497	179.16653	1178.3817	844.49414	145.48631	1198.295	860.99872	292.51889	1168.541	1115.8401	209.75584	-1401.649	1056.3667	194.15988	-1460.2032	1095.3602	162.6097	-1423.7712	1069.7383	238.91679	-1425.8719	-1204.511	1686.0081	-1563.2789	-1129.1333	1688.348	-1606.2334	-1173.1106	1724.3977	-1581.9579	-1134.0098	1581.0536	-1603.8394	-1239.5836	1699.0784	1119.4657	-1309.3309	1698.8617	1071.969	-1270.4392	1736.2877	1096.9104	-1245.5719	1592.7681	1110.6781	988.83655	1664.2244	1162.1897	957.30109	1700.4954	1183.8481	922.04663	1662.2628	1214.9259	939.81738	1659.433	1159.7727	999.16327	1668.4606	-1579.3668	1058.9316	1670.1611	-1518.686	1025.0861	1708.0779	-1551.1318	1059.3434	1672.2047	-1585.4987	-238.09074	1170.4296	-194.64194	-153.38304	1173.0214	-193.84563	-201.04565	1208.9016	-193.91075	-202.28479	1171.2794	-162.69722	-200.57162	1172.8591	-241.64587																																														-1068.4078	210.17114	-1625.1353	-1073.5253	248.82541	-1624.3232	-1321.6711	231.41017	1024.9188	-1320.6118	270.16724	1029.134	847.83594	184.07922	1196.0681	851.19495	222.8698	1193.83	1089.0387	202.72763	-1428.036	1083.0015	241.04163	-1432.1089	-1171.8969	1687.0205	-1581.8641	-1170.6311	1648.0411	-1581.7664	-1271.078	1698.9805	1098.0186	-1271.7455	1660.0034	1099.1764	952.78333	1705.6912	1186.9508	972.72522	1733.8676	1168.8008	1026.5883	1669.2408	-1551.5231	1028.0956	1630.272	-1551.9158	-199.90082	1171.5979	-194.28291	-198.70456	1132.6183	-194.67183
972	8.0916667	-1038.2177	214.5675	-1644.0692	-1109.3661	204.16052	-1599.3942	-1063.5096	172.94313	-1625.9113	-1054.1196	262.27881	-1634.8595	-1352.6681	235.04987	1003.5475	-1281.3785	227.38576	1052.1744	-1322.6951	194.02275	1020.86	-1284.3134	288.01892	1052.5636	813.95624	187.73006	1209.4845	892.18884	178.39398	1179.0695	844.54932	145.43268	1198.283	861.10846	292.6199	1168.4038	1115.9065	210.06757	-1401.8073	1056.3585	194.17252	-1460.2095	1095.2666	162.57704	-1423.7595	1069.7135	238.92058	-1425.8356	-1204.5837	1686.0597	-1563.1406	-1129.1366	1688.3845	-1606.269	-1173.1144	1724.4175	-1581.9647	-1134.0146	1581.0664	-1603.8438	-1239.5966	1699.1085	1119.4733	-1309.2576	1698.7806	1071.9412	-1270.4231	1736.2703	1096.9028	-1245.562	1592.7765	1110.6874	988.8493	1664.2097	1162.1494	957.28162	1700.5046	1183.8364	921.98535	1662.2634	1214.8569	939.86176	1659.4102	1159.7731	999.17029	1668.4659	-1579.3586	1058.5452	1669.8606	-1518.7354	1025.0884	1708.0768	-1551.1284	1059.3541	1672.1675	-1585.3849	-238.09009	1170.4288	-194.63957	-153.36906	1173.0303	-193.84436	-201.06172	1208.9103	-193.89958	-202.28864	1171.2719	-162.69533	-200.57092	1172.8716	-241.63123																																														-1068.438	210.14713	-1625.0934	-1073.5583	248.8002	-1624.2438	-1321.3896	231.68723	1024.8826	-1320.0465	270.44366	1029.022	848.2757	183.63445	1196.1417	852.05621	222.38995	1193.9695	1088.9303	202.86684	-1428.2644	1082.908	241.16042	-1432.5461	-1171.8872	1687.0671	-1581.8311	-1170.6064	1648.0885	-1581.6917	-1271.0184	1698.9606	1098.0328	-1271.6405	1659.9834	1099.2135	952.75763	1705.7061	1186.9443	972.72284	1733.8916	1168.8346	1026.4199	1669.106	-1551.536	1027.7516	1630.1309	-1551.9436	-199.91258	1171.6011	-194.28123	-198.71199	1132.6216	-194.67996
973	8.1	-1038.2302	214.56783	-1644.0802	-1109.3636	204.14716	-1599.3983	-1063.4926	172.94736	-1625.8802	-1054.1453	262.26465	-1634.8547	-1352.7516	235.03072	1003.6272	-1281.312	227.44336	1052.1432	-1322.7181	193.91069	1020.8819	-1284.5254	287.87357	1052.696	814.22003	187.39903	1209.6674	892.84344	179.28346	1178.4089	844.5163	145.52174	1198.2875	861.05237	292.42319	1168.3547	1115.8381	209.7708	-1401.6586	1056.359	194.14102	-1460.1754	1095.2408	162.57021	-1423.7278	1069.712	238.97229	-1425.9032	-1204.5836	1686.0712	-1563.1345	-1129.1261	1688.3746	-1606.2668	-1173.1582	1724.3097	-1581.8696	-1134.0074	1581.0774	-1603.8622	-1239.5957	1699.0867	1119.4713	-1309.3502	1698.8846	1071.976	-1270.4016	1736.2479	1096.88	-1245.5607	1592.7549	1110.6946	988.87787	1664.2319	1162.17	957.2995	1700.5688	1183.7904	922.10327	1662.2379	1214.8977	939.84039	1659.423	1159.7891	999.15088	1668.4833	-1579.3888	1058.9464	1670.1808	-1518.6823	1025.0863	1708.0861	-1551.1299	1059.3458	1672.2078	-1585.4979	-238.08629	1170.4274	-194.64503	-153.37698	1173.0458	-193.85097	-201.06058	1208.9053	-193.90561	-202.27846	1171.272	-162.69547	-200.57486	1172.8641	-241.63841																																														-1068.4497	210.14081	-1625.098	-1073.6011	248.79054	-1624.2852	-1321.4312	231.70428	1024.8973	-1320.1115	270.46381	1029.0154	847.7124	183.94191	1196.3517	850.94147	222.75876	1194.3959	1088.978	202.71255	-1428.084	1083.0005	241.02681	-1432.2419	-1171.9686	1687.0667	-1581.7776	-1170.7236	1648.0867	-1581.6813	-1271.0796	1698.9954	1098.0342	-1271.7889	1660.0205	1099.2417	952.8642	1705.6724	1186.827	972.80133	1733.8237	1168.6334	1026.593	1669.2622	-1551.5284	1028.1053	1630.2936	-1551.9283	-199.9041	1171.6075	-194.28709	-198.6955	1132.6282	-194.68581
974	8.1083333	-1038.2332	214.55219	-1644.0643	-1109.3584	204.22748	-1599.4056	-1063.6143	173.13396	-1625.9132	-1054.1663	262.27148	-1634.8706	-1352.6812	235.06699	1003.5544	-1281.4117	227.3096	1052.1542	-1322.7272	193.98572	1020.8505	-1284.3071	287.98187	1052.5778	813.97418	187.72957	1209.4683	892.34119	178.5921	1178.9598	844.51801	145.43539	1198.353	860.98798	292.54767	1168.3885	1115.8502	209.78894	-1401.6445	1056.3711	194.16449	-1460.1837	1095.5249	162.8853	-1423.6571	1069.7096	238.98289	-1425.9006	-1204.5789	1686.0657	-1563.1381	-1129.1274	1688.3606	-1606.26	-1173.1215	1724.3627	-1581.9307	-1134.0103	1581.0576	-1603.8572	-1239.6051	1699.1168	1119.4725	-1309.3234	1698.8403	1071.96	-1270.4375	1736.2747	1096.9036	-1245.5812	1592.7953	1110.6979	988.85162	1664.2137	1162.1705	957.34393	1700.5712	1183.8357	921.98169	1662.3817	1214.8983	939.85077	1659.4194	1159.7964	999.17975	1668.4659	-1579.373	1058.9094	1670.0764	-1518.746	1025.0878	1708.0756	-1551.1279	1059.3524	1672.1689	-1585.3856	-238.08408	1170.4301	-194.63744	-153.3902	1173.0334	-193.85751	-201.05801	1208.8969	-193.90576	-202.31168	1171.3049	-162.7086	-200.57323	1172.8695	-241.64168																																														-1068.4669	210.16338	-1625.0808	-1073.5332	248.82314	-1624.2118	-1321.385	231.66052	1024.8958	-1320.0045	270.4133	1029.0569	848.13489	183.74648	1196.1694	851.79462	222.51146	1193.9598	1089.1964	202.78732	-1427.8771	1083.1205	241.09744	-1431.9287	-1171.9154	1687.0591	-1581.8058	-1170.6554	1648.0796	-1581.6754	-1271.0609	1698.9921	1098.0354	-1271.7128	1660.0155	1099.2188	952.83154	1705.7778	1186.9384	972.83771	1733.92	1168.8064	1026.5778	1669.2046	-1551.5634	1028.0715	1630.2357	-1552	-199.90814	1171.6035	-194.28587	-198.7063	1132.624	-194.68318
975	8.1166667	-1038.2111	214.56238	-1644.0721	-1109.3796	204.1284	-1599.3608	-1063.5325	172.99811	-1625.8929	-1054.1384	262.23022	-1634.9155	-1352.6665	235.05193	1003.5204	-1281.3064	227.45424	1052.1119	-1322.7292	193.90559	1020.8575	-1284.387	287.97086	1052.6694	813.98901	187.72403	1209.5116	892.28632	178.51512	1178.9591	844.52325	145.44623	1198.2883	861.14404	292.38812	1168.4738	1115.9017	210.09012	-1401.7966	1056.354	194.13734	-1460.1924	1095.2994	162.61963	-1423.7518	1069.7623	238.95819	-1425.8633	-1204.583	1686.0679	-1563.1383	-1129.127	1688.3589	-1606.2722	-1173.129	1724.3804	-1581.9335	-1134.0144	1581.0588	-1603.8319	-1239.6168	1699.1202	1119.4779	-1309.4187	1698.954	1071.9951	-1270.3993	1736.2419	1096.885	-1245.613	1592.8629	1110.7078	988.84619	1664.1959	1162.1832	957.29633	1700.5405	1183.837	921.9953	1662.314	1214.8829	939.87665	1659.4076	1159.8053	999.16364	1668.4407	-1579.3414	1058.684	1670.0557	-1518.7308	1025.0839	1708.0725	-1551.125	1059.3428	1672.2002	-1585.4924	-238.0936	1170.4523	-194.64076	-153.38655	1173.0337	-193.84988	-201.0518	1208.9108	-193.90723	-202.27795	1171.2775	-162.67487	-200.57849	1172.8646	-241.63206																																														-1068.4585	210.12781	-1625.0692	-1073.5865	248.77968	-1624.2118	-1321.3964	231.72261	1024.8132	-1320.0302	270.48718	1028.8679	848.19385	183.70102	1196.1644	851.91315	222.46358	1194.0126	1088.9279	202.86386	-1428.2485	1082.8661	241.1516	-1432.5267	-1171.9238	1687.0594	-1581.8075	-1170.6652	1648.0798	-1581.676	-1271.1074	1699.0452	1098.0563	-1271.8495	1660.0717	1099.2836	952.80292	1705.7167	1186.921	972.78687	1733.8707	1168.783	1026.5123	1669.1826	-1551.4916	1027.9438	1630.2107	-1551.859	-199.91167	1171.6158	-194.28426	-198.72002	1132.636	-194.67833
976	8.125	-1038.235	214.55698	-1644.0552	-1109.376	204.15506	-1599.3547	-1063.5714	172.98164	-1625.8571	-1054.1241	262.22919	-1634.9133	-1352.7263	235.04097	1003.5366	-1281.3534	227.44518	1052.1752	-1322.6688	193.95152	1020.821	-1284.4583	287.95566	1052.7123	813.95532	187.6678	1209.543	892.77606	179.16544	1178.389	844.54822	145.53226	1198.2451	860.92108	292.35959	1168.3735	1115.8514	209.7755	-1401.6442	1056.3514	194.09708	-1460.1624	1095.2964	162.59584	-1423.7433	1069.7296	238.96086	-1425.8497	-1204.5739	1686.0696	-1563.1282	-1129.1219	1688.3763	-1606.2966	-1173.1237	1724.364	-1581.9247	-1134.0142	1581.0627	-1603.8416	-1239.5972	1699.1017	1119.4756	-1309.4377	1698.9957	1072.0139	-1270.402	1736.2542	1096.8911	-1245.6132	1592.866	1110.7145	988.86462	1664.2202	1162.1749	957.32227	1700.4871	1183.9114	922.07208	1662.3123	1214.8928	939.83893	1659.4247	1159.7606	999.1601	1668.4684	-1579.392	1058.922	1670.1539	-1518.6891	1025.0833	1708.0659	-1551.1251	1059.3611	1672.1636	-1585.3901	-238.09811	1170.4374	-194.64772	-153.37762	1173.0387	-193.83992	-201.05258	1208.913	-193.9008	-202.30527	1171.3013	-162.70541	-200.58409	1172.8623	-241.64949																																														-1068.4923	210.13287	-1625.0432	-1073.6119	248.78607	-1624.1967	-1321.4135	231.70851	1024.8754	-1320.1249	270.46442	1029.037	847.86646	184.00981	1196.1395	851.21246	222.80795	1194.0165	1088.9838	202.6958	-1428.0682	1082.9531	241.00452	-1432.2003	-1171.9186	1687.0679	-1581.8112	-1170.6592	1648.0885	-1581.6929	-1271.1306	1699.0537	1098.0464	-1271.8939	1660.08	1099.2567	952.77881	1705.7109	1187.0422	972.7326	1733.9121	1168.9443	1026.5897	1669.2419	-1551.5303	1028.1019	1630.2734	-1551.9369	-199.90349	1171.6101	-194.28352	-198.70277	1132.6306	-194.68346
